<svg xmlns="http://www.w3.org/2000/svg" viewBox="0 0 299.86 74.08"><defs><style>.cls-1{fill:#01949c}.cls-2{fill:#45c2c7}.cls-3{fill:url(#radial-gradient)}</style><radialGradient id="radial-gradient" cx="55.44" cy="23.5" r="28.51" gradientTransform="matrix(1.5 0 0 1.5 -46.94 1.33)" gradientUnits="userSpaceOnUse"><stop offset=".17" stop-color="#01949c" stop-opacity=".95"/><stop offset=".23" stop-color="#0899a1" stop-opacity=".95"/><stop offset=".55" stop-color="#29afb6" stop-opacity=".95"/><stop offset=".82" stop-color="#3ebdc2" stop-opacity=".95"/><stop offset="1" stop-color="#45c2c7" stop-opacity=".95"/></radialGradient></defs><title>Asset 1</title><g id="Layer_2" data-name="Layer 2"><g id="Layer_1-2" data-name="Layer 1"><path class="cls-1" d="M94.92 52.64l-1.86-11.06h-7.61l-1.9 11.06h-2.68l6.64-36.53H91l6.59 36.53zm-5.14-30.3c-.21-1.13-.36-2.26-.52-3.4-.1 1.08-.26 2.11-.41 3.14l-3 17.13h6.75zm19.34 29.74a7 7 0 0 1-3.09.67 7.39 7.39 0 0 1-3.76-.93 9 9 0 0 1-1.13-.93 3.86 3.86 0 0 1-.51-.87 8.47 8.47 0 0 1-.77-4.27v-2.21H102V45c0 1.23-.05 3 .72 4.17a2.57 2.57 0 0 0 1 .93 4.63 4.63 0 0 0 2.26.51 4.09 4.09 0 0 0 1.85-.31c1.59-.67 2-2.52 2-4 0-2.93-1.29-3.86-3.4-5.61a44.94 44.94 0 0 1-3.7-3.29 7.39 7.39 0 0 1-1.9-5.2c0-2 .41-5.56 5.45-5.56 5.5 0 5.4 4.42 5.4 6.23v1.75h-2.21v-1.84c0-1.49-.15-3.24-1.8-3.86a4.64 4.64 0 0 0-1.44-.21c-2.16 0-3.19 1-3.19 3.29a4.49 4.49 0 0 0 1.08 3.5 32.19 32.19 0 0 0 3.86 3.6 26.72 26.72 0 0 1 2.26 2 7.35 7.35 0 0 1 1.8 5.25c.01 3.51-1.43 5.01-2.92 5.73zm14.51 0a7 7 0 0 1-3.09.67 7.39 7.39 0 0 1-3.76-.93 9 9 0 0 1-1.13-.93 3.86 3.86 0 0 1-.51-.87 8.47 8.47 0 0 1-.77-4.27v-2.21h2.16V45c0 1.23-.05 3 .72 4.17a2.57 2.57 0 0 0 1 .93 4.63 4.63 0 0 0 2.26.51 4.09 4.09 0 0 0 1.85-.31c1.59-.67 2-2.52 2-4 0-2.93-1.29-3.86-3.4-5.61a44.94 44.94 0 0 1-3.7-3.29 7.39 7.39 0 0 1-1.9-5.2c0-2 .41-5.56 5.45-5.56 5.5 0 5.4 4.42 5.4 6.23v1.75H124v-1.84c0-1.49-.15-3.24-1.8-3.86a4.64 4.64 0 0 0-1.44-.21c-2.16 0-3.19 1-3.19 3.29a4.49 4.49 0 0 0 1.08 3.5 32.19 32.19 0 0 0 3.86 3.6 26.72 26.72 0 0 1 2.26 2 7.35 7.35 0 0 1 1.8 5.25c-.01 3.51-1.45 5.01-2.94 5.73zm16.72-1.5a5.77 5.77 0 0 1-4.84 2.11 7.92 7.92 0 0 1-2.21-.31 5.25 5.25 0 0 1-3.24-3.14 6.81 6.81 0 0 1-.41-2.88V32.78a8.58 8.58 0 0 1 .31-2.42c.46-1.49 1.75-3.76 5.56-3.76a5.63 5.63 0 0 1 4.94 2.26c1.08 1.65 1 4 1 5.87v5.2h-9.67v6.38a7.72 7.72 0 0 0 .21 1.85 3.37 3.37 0 0 0 3.65 2.52 4 4 0 0 0 2.57-.93 2.8 2.8 0 0 0 .72-1.13c.41-1.13.36-2.47.36-5h2.16v2.93a5.92 5.92 0 0 1-1.11 4.03zm-1.08-17.23c0-2.26-.57-3.4-1.44-4.06a3.92 3.92 0 0 0-4.53 0c-1.39 1.08-1.49 2.68-1.49 4.27v4.53h7.46zm14.46 18.73a7 7 0 0 1-3.09.67 7.39 7.39 0 0 1-3.76-.93 9 9 0 0 1-1.13-.93 3.86 3.86 0 0 1-.51-.87 8.47 8.47 0 0 1-.77-4.27v-2.21h2.16V45c0 1.23-.05 3 .72 4.17a2.57 2.57 0 0 0 1 .93 4.63 4.63 0 0 0 2.26.51 4.09 4.09 0 0 0 1.85-.31c1.59-.67 2-2.52 2-4 0-2.93-1.29-3.86-3.4-5.61a44.94 44.94 0 0 1-3.7-3.29 7.39 7.39 0 0 1-1.9-5.2c0-2 .41-5.56 5.45-5.56 5.5 0 5.4 4.42 5.4 6.23v1.75h-2.21v-1.84c0-1.49-.15-3.24-1.8-3.86a4.64 4.64 0 0 0-1.44-.21c-2.16 0-3.19 1-3.19 3.29a4.49 4.49 0 0 0 1.08 3.5 32.19 32.19 0 0 0 3.86 3.6 26.72 26.72 0 0 1 2.26 2 7.35 7.35 0 0 1 1.8 5.25c-.01 3.51-1.45 5.01-2.94 5.73zm14.51 0a7 7 0 0 1-3.09.67 7.39 7.39 0 0 1-3.76-.93 9 9 0 0 1-1.13-.93 3.86 3.86 0 0 1-.51-.87 8.47 8.47 0 0 1-.77-4.27v-2.21h2.16V45c0 1.23-.05 3 .72 4.17a2.57 2.57 0 0 0 1 .93 4.63 4.63 0 0 0 2.26.51 4.09 4.09 0 0 0 1.85-.31c1.59-.67 2-2.52 2-4 0-2.93-1.29-3.86-3.4-5.61a44.94 44.94 0 0 1-3.7-3.29 7.39 7.39 0 0 1-1.9-5.2c0-2 .41-5.56 5.45-5.56 5.5 0 5.4 4.42 5.4 6.23v1.75h-2.22v-1.84c0-1.49-.15-3.24-1.8-3.86a4.64 4.64 0 0 0-1.44-.21c-2.16 0-3.19 1-3.19 3.29a4.49 4.49 0 0 0 1.08 3.5 32.19 32.19 0 0 0 3.86 3.6 26.72 26.72 0 0 1 2.26 2 7.35 7.35 0 0 1 1.8 5.25c0 3.51-1.44 5.01-2.93 5.73zm25.83.56V34.12c0-2.88 0-4.37-1.44-5.2a3.8 3.8 0 0 0-1.8-.41 4.24 4.24 0 0 0-3.4 1.7 6.58 6.58 0 0 0-.82 1.49v20.94h-2.21V32.22a5.69 5.69 0 0 0-.21-1.59 3.11 3.11 0 0 0-3.09-2.16 4.45 4.45 0 0 0-3.1 1.33 4.64 4.64 0 0 0-1 1.49v21.35h-2.16V26.76H177v2.16a7.44 7.44 0 0 1 .82-.87 6.39 6.39 0 0 1 4-1.59 4.72 4.72 0 0 1 4.42 3.09 6.16 6.16 0 0 1 5.2-3.14 4.59 4.59 0 0 1 4.22 2.59c.62 1.29.62 2.62.62 5.35v18.29zm17.18-2.06a5.77 5.77 0 0 1-4.84 2.11 7.91 7.91 0 0 1-2.21-.31 5.25 5.25 0 0 1-3.2-3.13 6.81 6.81 0 0 1-.41-2.88V32.78a8.58 8.58 0 0 1 .31-2.42c.46-1.49 1.75-3.76 5.56-3.76a5.63 5.63 0 0 1 4.94 2.26c1.08 1.65 1 4 1 5.87v5.2h-9.67v6.38a7.72 7.72 0 0 0 .21 1.85 3.37 3.37 0 0 0 3.65 2.52 4 4 0 0 0 2.57-.93 2.79 2.79 0 0 0 .72-1.13c.41-1.13.36-2.47.36-5h2.16v2.93a5.93 5.93 0 0 1-1.15 4.03zm-1.08-17.23c0-2.26-.57-3.4-1.44-4.06a3.92 3.92 0 0 0-4.53 0c-1.39 1.08-1.49 2.68-1.49 4.27v4.53h7.46zm16.26 19.29V31.91a10.5 10.5 0 0 0-.26-1.59 2.93 2.93 0 0 0-2.93-2 4.46 4.46 0 0 0-3.65 2 5.65 5.65 0 0 0-.67 1.29v21h-2.16V26.76h2.16v2.47a5.92 5.92 0 0 1 1-1.23 5.4 5.4 0 0 1 3.81-1.54 4.59 4.59 0 0 1 4.63 3.29 7.39 7.39 0 0 1 .26 2.11v20.78zm7.93-.82a2.85 2.85 0 0 1-.62-2.11V28.82H231v-2.06h2.73v-6.68H236v6.69h3.91v2.06H236v20.36c0 1.49 1.49 1.49 2 1.49.67 0 1.29-.05 2-.1v2.06c-3 .21-4.66.21-5.64-.82z"/><path class="cls-2" d="M263.63 52.64v-18h-9.36v18h-2.47V16.32h2.47v16.15h9.36V16.32h2.52v36.32zm17.14 0v-2.42a8.29 8.29 0 0 1-.82 1 5.68 5.68 0 0 1-3.86 1.59 4.73 4.73 0 0 1-3.86-1.9 6.65 6.65 0 0 1-1-4.17v-20h2.16V45.9c0 1.59.15 3.81 2 4.68a2.84 2.84 0 0 0 1.44.31 3.9 3.9 0 0 0 3.14-1.59 8 8 0 0 0 .87-1.75V26.76H283v25.88zm18.11-2.31a5.14 5.14 0 0 1-4.48 2.47 4.59 4.59 0 0 1-2.68-.72 8.23 8.23 0 0 1-1-.82 6.76 6.76 0 0 1-.52-.77v2.16h-2.31V16.32h2.16V29c.1-.1.51-.62.87-1a5.45 5.45 0 0 1 3.91-1.54 5 5 0 0 1 2.42.57c2.37 1.18 2.57 4 2.57 6.28v13.36a6.22 6.22 0 0 1-.94 3.66zm-1.18-17.19c0-.46.1-4.63-3.45-4.63a3.92 3.92 0 0 0-3.86 2.83 5.26 5.26 0 0 0-.26 1.85V45.7a5.56 5.56 0 0 0 .87 3.24 3.93 3.93 0 0 0 3.24 1.9 3.18 3.18 0 0 0 2.62-1.44 5.89 5.89 0 0 0 .82-3.5z"/><path class="cls-3" d="M74.44 20.58a3.64 3.64 0 0 0-6.9 2.24l-22.38 9.5a9.66 9.66 0 0 0-4.61-4.45l9.78-24.24a1.82 1.82 0 1 0-1.22-.68 1.75 1.75 0 0 0 .34.29l-9.8 24.27a9.67 9.67 0 0 0-6.41 0L25.41 9.09c.09-.06.18-.1.26-.17a3.68 3.68 0 1 0-1.44.68L32.06 28a9.67 9.67 0 0 0-4.46 4.62l-14.1-5.68a1.82 1.82 0 1 0-.68 1.22 1.75 1.75 0 0 0 .29-.34l14.13 5.7a9.66 9.66 0 0 0 0 6.4L3.12 50.18A1.81 1.81 0 0 0 .7 50a1.82 1.82 0 1 0 2.25 2.87 1.79 1.79 0 0 0 .66-1.5l24.14-10.26a9.66 9.66 0 0 0 4.61 4.45l-5.69 14.11a1.82 1.82 0 1 0 1.22.68 1.76 1.76 0 0 0-.34-.29l5.71-14.14a9.48 9.48 0 0 0 6.41 0l9.87 23.24h-.06a2.77 2.77 0 1 0 1.25-.54l-9.88-23.2a9.66 9.66 0 0 0 4.45-4.61l16.65 6.71a2.79 2.79 0 1 0 .36-.9l-16.65-6.7a9.66 9.66 0 0 0 0-6.41L68 24a3.64 3.64 0 0 0 6.4-3.42zm-30 18.86c-.05.15-.1.3-.16.45s-.16.29-.23.43a8.35 8.35 0 0 1-3.75 3.88c-.19.1-.37.22-.57.31s-.4.15-.6.22a8.4 8.4 0 0 1-5.42 0l-.46-.16c-.15-.06-.28-.15-.43-.22A8.36 8.36 0 0 1 29 40.6c-.1-.19-.22-.37-.31-.57s-.15-.4-.22-.6a8.39 8.39 0 0 1 0-5.42c.05-.15.1-.31.16-.46s.15-.28.22-.42a8.36 8.36 0 0 1 3.76-3.9c.19-.1.37-.22.57-.31s.4-.15.6-.22a8.24 8.24 0 0 1 5.42 0l.46.16c.15.06.28.15.43.22a8.36 8.36 0 0 1 3.89 3.75c.1.19.22.37.31.57s.15.4.22.6a8.39 8.39 0 0 1-.04 5.43zM33.6 30a7.29 7.29 0 1 0 9.56 3.86A7.29 7.29 0 0 0 33.6 30z"/></g></g></svg>