<svg id="Layer_1" xmlns="http://www.w3.org/2000/svg" viewBox="0 0 64 67"><style>.st0{fill:#01949d}</style><path class="st0" d="M52 7.5H12c-.3 0-.5.2-.5.5v48c0 .3.2.5.5.5h40c.3 0 .5-.2.5-.5V8c0-.3-.2-.5-.5-.5zm-.5 48h-39v-47h39v47z"/><path class="st0" d="M22 22.5c2.5 0 4.5-2 4.5-4.5s-2-4.5-4.5-4.5-4.5 2-4.5 4.5 2 4.5 4.5 4.5zm0-8c1.9 0 3.5 1.6 3.5 3.5s-1.6 3.5-3.5 3.5-3.5-1.6-3.5-3.5 1.6-3.5 3.5-3.5zm0 22c2.5 0 4.5-2 4.5-4.5s-2-4.5-4.5-4.5-4.5 2-4.5 4.5 2 4.5 4.5 4.5zm0-8c1.9 0 3.5 1.6 3.5 3.5s-1.6 3.5-3.5 3.5-3.5-1.6-3.5-3.5 1.6-3.5 3.5-3.5zm0 22c2.5 0 4.5-2 4.5-4.5s-2-4.5-4.5-4.5-4.5 2-4.5 4.5 2 4.5 4.5 4.5zm0-8c1.9 0 3.5 1.6 3.5 3.5s-1.6 3.5-3.5 3.5-3.5-1.6-3.5-3.5 1.6-3.5 3.5-3.5zm10-28h12c.3 0 .5-.2.5-.5s-.2-.5-.5-.5H32c-.3 0-.5.2-.5.5s.2.5.5.5zm0 6h6c.3 0 .5-.2.5-.5s-.2-.5-.5-.5h-6c-.3 0-.5.2-.5.5s.2.5.5.5zm0 8h12c.3 0 .5-.2.5-.5s-.2-.5-.5-.5H32c-.3 0-.5.2-.5.5s.2.5.5.5zm0 6h10c.3 0 .5-.2.5-.5s-.2-.5-.5-.5H32c-.3 0-.5.2-.5.5s.2.5.5.5zm0 8h10c.3 0 .5-.2.5-.5s-.2-.5-.5-.5H32c-.3 0-.5.2-.5.5s.2.5.5.5zm0 6h6c.3 0 .5-.2.5-.5s-.2-.5-.5-.5h-6c-.3 0-.5.2-.5.5s.2.5.5.5z"/></svg>