<svg id="Layer_1" xmlns="http://www.w3.org/2000/svg" viewBox="0 0 100 103"><style>.st0{fill:#01949d}</style><path class="st0" d="M50 960.4c-3.9 0-7 3.1-7 7s3.1 7 7 7 7-3.1 7-7-3.1-7-7-7zm0 2c2.8 0 5 2.2 5 5s-2.2 5-5 5-5-2.2-5-5 2.2-5 5-5zm0 17c-4.3 0-8.2.8-11.1 2.2s-4.9 3.8-4.9 6.7v8c0 .5.5 1 1 1h30c.5 0 1-.5 1-1v-8c0-2.9-2-5.2-4.9-6.7s-6.8-2.2-11.1-2.2zm0 2c4 0 7.6.7 10.2 2 2.5 1.3 3.8 2.9 3.8 4.9v7H36v-7c0-2 1.3-3.7 3.8-4.9 2.6-1.3 6.2-2 10.2-2zm-.1 23.9c-.5.1-.9.5-.9 1v9.4l-9.5 5.7c-.5.2-.7.9-.5 1.4.3.5 1 .6 1.5.3l9.5-5.7 9.5 5.7c.5.3 1.2.2 1.5-.3s.1-1.2-.5-1.4l-9.5-5.7v-9.4c0-.5-.6-1-1.1-1zm-26.9 2.1c-3.9 0-7 3.1-7 7s3.1 7 7 7 7-3.1 7-7-3.1-7-7-7zm54 0c-3.9 0-7 3.1-7 7s3.1 7 7 7 7-3.1 7-7-3.1-7-7-7zm-54 2c2.8 0 5 2.2 5 5s-2.2 5-5 5-5-2.2-5-5 2.2-5 5-5zm54 0c2.8 0 5 2.2 5 5s-2.2 5-5 5-5-2.2-5-5 2.2-5 5-5zm-54 17c-4.3 0-8.2.8-11.1 2.2s-4.9 3.8-4.9 6.7v8c0 .5.5 1 1 1h30c.5 0 1-.5 1-1v-8c0-2.9-2-5.2-4.9-6.7s-6.8-2.2-11.1-2.2zm54 0c-4.3 0-8.2.8-11.1 2.2-2.9 1.5-4.9 3.8-4.9 6.7v8c0 .5.5 1 1 1h30c.5 0 1-.5 1-1v-8c0-2.9-2-5.2-4.9-6.7s-6.8-2.2-11.1-2.2zm-54 2c4 0 7.6.7 10.2 2 2.5 1.3 3.8 2.9 3.8 4.9v7H9v-7c0-2 1.3-3.7 3.8-4.9s6.2-2 10.2-2zm54 0c4 0 7.6.7 10.2 2 2.5 1.3 3.8 2.9 3.8 4.9v7H63v-7c0-2 1.3-3.7 3.8-4.9s6.2-2 10.2-2z" transform="translate(0 -952.362)"/></svg>