<svg id="Layer_1" xmlns="http://www.w3.org/2000/svg" viewBox="0 0 123 123"><style>.st0{fill:#01949d}</style><path class="st0" d="M32.4 13.5c-2.8 0-5 2.2-5 5V72c.6.8 1.3 1.5 2 2.2V18.5c0-1.7 1.3-3 3-3h57c1.7 0 3 1.3 3 3h2c0-2.8-2.2-5-5-5h-57zm10 9c-2.8 0-5 2.2-5 5v51.3c.7.2 1.3.3 2 .4V27.5c0-1.7 1.3-3 3-3h57c1.7 0 3 1.3 3 3v82c0 1.7-1.3 3-3 3h-57c-1.7 0-3-1.3-3-3V91.4c-.7-.1-1.3-.2-2-.3v18.4c0 2.8 2.2 5 5 5h57c2.8 0 5-2.2 5-5v-82c0-2.8-2.2-5-5-5h-57zm6 10c-.6 0-1 .4-1 1s.4 1 1 1h45c.6 0 1-.4 1-1s-.4-1-1-1h-45zm0 10c-.6 0-1 .4-1 1s.4 1 1 1h45c.6 0 1-.4 1-1s-.4-1-1-1h-45zm-24.7.7c-.2 0-.5.1-.7.3-4.6 5.3-6.8 12-6.3 18.9s3.6 13.3 8.9 17.8c5.3 4.6 12 6.8 18.9 6.3 5.6-.4 10.8-2.6 15-6.2L57.1 89c-.1.5.2 1.1.7 1.2h.3c.4 0 .8-.2.9-.7l3.5-12.4v-.5c0-.1-.1-.2-.1-.3v-.1c-.1-.1-.2-.2-.3-.2-.2-.1-.5-.2-.7-.1l-12.2 2.4c-.6.1-.9.7-.8 1.2s.5.8 1 .8h.2l9-1.8c-8.9 7.8-22.4 8.1-31.6.2-4.8-4.2-7.7-10-8.2-16.4-.4-6.4 1.6-12.5 5.8-17.4.4-.4.3-1-.1-1.4-.3-.3-.6-.4-.8-.3zm24.7 9.3c-.6 0-1 .4-1 1s.4 1 1 1h45c.6 0 1-.4 1-1s-.4-1-1-1h-45zm0 10c-.6 0-1 .4-1 1s.4 1 1 1h45c.6 0 1-.4 1-1s-.4-1-1-1h-45zm32.5 12c-8.8 0-16 7.2-16 16s7.2 16 16 16c4.5 0 8.5-1.9 11.5-4.9 0 0 0-.1.1-.1 2.7-2.9 4.4-6.8 4.4-11 0-8.8-7.2-16-16-16zm-1 2v14c0 .4.2.7.4.8l9.9 9.6c-2.5 2.2-5.8 3.6-9.3 3.6-7.7 0-14-6.3-14-14 0-7.4 5.8-13.5 13-14zm2 0c6.9.5 12.5 6 13 13h-13v-13zM27.4 87.6v12.9c0 2.8 2.2 5 5 5h1v-2h-1c-1.7 0-3-1.3-3-3V88.6c-.7-.3-1.3-.7-2-1zm56 3.9h11.5c-.2 3-1.4 5.8-3.2 7.9l-8.3-7.9z"/></svg>