<svg id="Layer_1" xmlns="http://www.w3.org/2000/svg" viewBox="0 0 100 100"><style>.st0{fill:none}.st1{fill:#01949d}</style><path class="st0" d="M4.7 5.8h90v90h-90z"/><path class="st1" d="M55 68.8H44.3c-.8 0-1.4-.6-1.4-1.4v-4.3c0-8.8 4.8-16.9 12.6-21.1 0 0 .1 0 .1-.1 0 0 .1-.1.2-.1.4-.3.9-.5 1.3-.9 3-2.3 4.7-5.8 4.7-9.6 0-6.7-5.4-12.1-12.1-12.1s-12.1 5.4-12.1 12.1c0 .8-.6 1.4-1.4 1.4H25.4c-.8 0-1.4-.6-1.4-1.4 0-3.5.7-6.8 2-10 1.3-3.1 3.1-5.8 5.5-8.1 2.4-2.4 5.1-4.2 8.1-5.5 3.2-1.3 6.5-2 10-2s6.8.7 10 2c3.1 1.3 5.8 3.1 8.1 5.5 2.4 2.4 4.2 5.1 5.5 8.1 1.3 3.2 2 6.5 2 10 0 4-.9 7.9-2.7 11.5-1.7 3.4-4.2 6.5-7.3 8.8-.9.7-1.8 1.3-2.7 1.8-.1.1-.2.1-.3.2h-.1c-.1.1-.2.1-.3.2-3.4 1.8-5.5 5.3-5.5 9.2v4.3c.1.9-.5 1.5-1.3 1.5zM45.7 66h8v-2.9c0-4.9 2.7-9.4 7-11.7.1 0 .1-.1.2-.1h.1c.1 0 .2-.1.2-.1.8-.5 1.6-1 2.4-1.6 2.7-2.1 5-4.8 6.5-7.8 1.6-3.2 2.4-6.7 2.4-10.3 0-3.1-.6-6.1-1.8-8.9-1.1-2.7-2.8-5.2-4.9-7.3-2.1-2.1-4.5-3.7-7.3-4.9s-5.8-1.8-8.9-1.8c-3.1 0-6.1.6-8.9 1.8-2.7 1.1-5.2 2.8-7.3 4.9s-3.7 4.5-4.9 7.3c-1 2.4-1.6 4.9-1.8 7.5h8c.7-7.6 7.1-13.5 14.8-13.5 8.2 0 14.9 6.7 14.9 14.9 0 4.7-2.1 9-5.8 11.8-.5.4-1 .7-1.6 1.1-.1 0-.1.1-.2.1h-.2C50 48.2 45.7 55.3 45.7 63.1V66zm4 29.8c-5.5 0-10-4.5-10-10s4.5-10 10-10 10 4.5 10 10c-.1 5.5-4.5 10-10 10zm0-17.1c-3.9 0-7.2 3.2-7.2 7.2 0 3.9 3.2 7.2 7.2 7.2s7.2-3.2 7.2-7.2c-.1-4-3.3-7.2-7.2-7.2z"/></svg>