<?xml version="1.0" encoding="utf-8"?>
<!-- Generator: Adobe Illustrator 21.0.2, SVG Export Plug-In . SVG Version: 6.00 Build 0)  -->
<svg version="1.1" id="Layer_1" xmlns="http://www.w3.org/2000/svg" xmlns:xlink="http://www.w3.org/1999/xlink" x="0px" y="0px"
	 viewBox="0 0 64 67" style="enable-background:new 0 0 64 67;" xml:space="preserve">
<style type="text/css">
	.st0{fill:#01949D;}
</style>
<g>
	<g>
		<path class="st0" d="M52,7.5H12c-0.3,0-0.5,0.2-0.5,0.5v48c0,0.3,0.2,0.5,0.5,0.5h40c0.3,0,0.5-0.2,0.5-0.5V8
			C52.5,7.7,52.3,7.5,52,7.5z M51.5,55.5h-39v-47h39V55.5z"/>
		<path class="st0" d="M22,22.5c2.5,0,4.5-2,4.5-4.5s-2-4.5-4.5-4.5s-4.5,2-4.5,4.5S19.5,22.5,22,22.5z M22,14.5
			c1.9,0,3.5,1.6,3.5,3.5s-1.6,3.5-3.5,3.5s-3.5-1.6-3.5-3.5S20.1,14.5,22,14.5z"/>
		<path class="st0" d="M22,36.5c2.5,0,4.5-2,4.5-4.5s-2-4.5-4.5-4.5s-4.5,2-4.5,4.5S19.5,36.5,22,36.5z M22,28.5
			c1.9,0,3.5,1.6,3.5,3.5c0,1.9-1.6,3.5-3.5,3.5s-3.5-1.6-3.5-3.5S20.1,28.5,22,28.5z"/>
		<path class="st0" d="M22,50.5c2.5,0,4.5-2,4.5-4.5s-2-4.5-4.5-4.5s-4.5,2-4.5,4.5S19.5,50.5,22,50.5z M22,42.5
			c1.9,0,3.5,1.6,3.5,3.5s-1.6,3.5-3.5,3.5s-3.5-1.6-3.5-3.5S20.1,42.5,22,42.5z"/>
		<path class="st0" d="M32,14.5h12c0.3,0,0.5-0.2,0.5-0.5s-0.2-0.5-0.5-0.5H32c-0.3,0-0.5,0.2-0.5,0.5S31.7,14.5,32,14.5z"/>
		<path class="st0" d="M32,20.5h6c0.3,0,0.5-0.2,0.5-0.5s-0.2-0.5-0.5-0.5h-6c-0.3,0-0.5,0.2-0.5,0.5S31.7,20.5,32,20.5z"/>
		<path class="st0" d="M32,28.5h12c0.3,0,0.5-0.2,0.5-0.5s-0.2-0.5-0.5-0.5H32c-0.3,0-0.5,0.2-0.5,0.5S31.7,28.5,32,28.5z"/>
		<path class="st0" d="M32,34.5h10c0.3,0,0.5-0.2,0.5-0.5s-0.2-0.5-0.5-0.5H32c-0.3,0-0.5,0.2-0.5,0.5S31.7,34.5,32,34.5z"/>
		<path class="st0" d="M32,42.5h10c0.3,0,0.5-0.2,0.5-0.5s-0.2-0.5-0.5-0.5H32c-0.3,0-0.5,0.2-0.5,0.5S31.7,42.5,32,42.5z"/>
		<path class="st0" d="M32,48.5h6c0.3,0,0.5-0.2,0.5-0.5s-0.2-0.5-0.5-0.5h-6c-0.3,0-0.5,0.2-0.5,0.5S31.7,48.5,32,48.5z"/>
	</g>
</g>
</svg>
