<?xml version="1.0" encoding="utf-8"?>
<!-- Generator: Adobe Illustrator 21.0.2, SVG Export Plug-In . SVG Version: 6.00 Build 0)  -->
<svg version="1.1"
	 id="Layer_1" xmlns:cc="http://creativecommons.org/ns#" xmlns:dc="http://purl.org/dc/elements/1.1/" xmlns:inkscape="http://www.inkscape.org/namespaces/inkscape" xmlns:rdf="http://www.w3.org/1999/02/22-rdf-syntax-ns#" xmlns:sodipodi="http://sodipodi.sourceforge.net/DTD/sodipodi-0.dtd" xmlns:svg="http://www.w3.org/2000/svg"
	 xmlns="http://www.w3.org/2000/svg" xmlns:xlink="http://www.w3.org/1999/xlink" x="0px" y="0px" viewBox="0 0 100 103"
	 style="enable-background:new 0 0 100 103;" xml:space="preserve">
<style type="text/css">
	.st0{fill:#01949D;}
</style>
<g transform="translate(0,-952.36218)">
	<path class="st0" d="M50,960.4c-3.9,0-7,3.1-7,7s3.1,7,7,7s7-3.1,7-7S53.9,960.4,50,960.4z M50,962.4c2.8,0,5,2.2,5,5s-2.2,5-5,5
		s-5-2.2-5-5S47.2,962.4,50,962.4z M50,979.4c-4.3,0-8.2,0.8-11.1,2.2s-4.9,3.8-4.9,6.7v8c0,0.5,0.5,1,1,1h30c0.5,0,1-0.5,1-1v-8
		c0-2.9-2-5.2-4.9-6.7S54.3,979.4,50,979.4L50,979.4z M50,981.4c4,0,7.6,0.7,10.2,2c2.5,1.3,3.8,2.9,3.8,4.9v7H36v-7
		c0-2,1.3-3.7,3.8-4.9C42.4,982.1,46,981.4,50,981.4z M49.9,1005.3c-0.5,0.1-0.9,0.5-0.9,1v9.4l-9.5,5.7c-0.5,0.2-0.7,0.9-0.5,1.4
		c0.3,0.5,1,0.6,1.5,0.3l9.5-5.7l9.5,5.7c0.5,0.3,1.2,0.2,1.5-0.3s0.1-1.2-0.5-1.4l-9.5-5.7v-9.4C51,1005.8,50.4,1005.3,49.9,1005.3
		z M23,1007.4c-3.9,0-7,3.1-7,7s3.1,7,7,7s7-3.1,7-7S26.9,1007.4,23,1007.4z M77,1007.4c-3.9,0-7,3.1-7,7s3.1,7,7,7s7-3.1,7-7
		S80.9,1007.4,77,1007.4z M23,1009.4c2.8,0,5,2.2,5,5s-2.2,5-5,5s-5-2.2-5-5S20.2,1009.4,23,1009.4z M77,1009.4c2.8,0,5,2.2,5,5
		s-2.2,5-5,5s-5-2.2-5-5S74.2,1009.4,77,1009.4z M23,1026.4c-4.3,0-8.2,0.8-11.1,2.2s-4.9,3.8-4.9,6.7v8c0,0.5,0.5,1,1,1h30
		c0.5,0,1-0.5,1-1v-8c0-2.9-2-5.2-4.9-6.7S27.3,1026.4,23,1026.4z M77,1026.4c-4.3,0-8.2,0.8-11.1,2.2c-2.9,1.5-4.9,3.8-4.9,6.7v8
		c0,0.5,0.5,1,1,1h30c0.5,0,1-0.5,1-1v-8c0-2.9-2-5.2-4.9-6.7S81.3,1026.4,77,1026.4z M23,1028.4c4,0,7.6,0.7,10.2,2
		c2.5,1.3,3.8,2.9,3.8,4.9v7H9v-7c0-2,1.3-3.7,3.8-4.9S19,1028.4,23,1028.4z M77,1028.4c4,0,7.6,0.7,10.2,2c2.5,1.3,3.8,2.9,3.8,4.9
		v7H63v-7c0-2,1.3-3.7,3.8-4.9S73,1028.4,77,1028.4z"/>
</g>
</svg>
