<?xml version="1.0" encoding="utf-8"?>
<!-- Generator: Adobe Illustrator 21.0.2, SVG Export Plug-In . SVG Version: 6.00 Build 0)  -->
<svg version="1.1"
	 id="Layer_1" xmlns:cc="http://creativecommons.org/ns#" xmlns:dc="http://purl.org/dc/elements/1.1/" xmlns:inkscape="http://www.inkscape.org/namespaces/inkscape" xmlns:rdf="http://www.w3.org/1999/02/22-rdf-syntax-ns#" xmlns:sodipodi="http://sodipodi.sourceforge.net/DTD/sodipodi-0.dtd" xmlns:svg="http://www.w3.org/2000/svg"
	 xmlns="http://www.w3.org/2000/svg" xmlns:xlink="http://www.w3.org/1999/xlink" x="0px" y="0px" viewBox="0 0 123 123"
	 style="enable-background:new 0 0 123 123;" xml:space="preserve">
<style type="text/css">
	.st0{fill:#01949D;}
</style>
<path class="st0" d="M32.4,13.5c-2.8,0-5,2.2-5,5V72c0.6,0.8,1.3,1.5,2,2.2V18.5c0-1.7,1.3-3,3-3h57c1.7,0,3,1.3,3,3h2
	c0-2.8-2.2-5-5-5H32.4z M42.4,22.5c-2.8,0-5,2.2-5,5v51.3c0.7,0.2,1.3,0.3,2,0.4V27.5c0-1.7,1.3-3,3-3h57c1.7,0,3,1.3,3,3v82
	c0,1.7-1.3,3-3,3h-57c-1.7,0-3-1.3-3-3V91.4c-0.7-0.1-1.3-0.2-2-0.3v18.4c0,2.8,2.2,5,5,5h57c2.8,0,5-2.2,5-5v-82c0-2.8-2.2-5-5-5
	H42.4z M48.4,32.5c-0.6,0-1,0.4-1,1s0.4,1,1,1h45c0.6,0,1-0.4,1-1s-0.4-1-1-1H48.4z M48.4,42.5c-0.6,0-1,0.4-1,1s0.4,1,1,1h45
	c0.6,0,1-0.4,1-1s-0.4-1-1-1H48.4z M23.7,43.2c-0.2,0-0.5,0.1-0.7,0.3c-4.6,5.3-6.8,12-6.3,18.9s3.6,13.3,8.9,17.8
	c5.3,4.6,12,6.8,18.9,6.3c5.6-0.4,10.8-2.6,15-6.2L57.1,89c-0.1,0.5,0.2,1.1,0.7,1.2h0.3c0.4,0,0.8-0.2,0.9-0.7l3.5-12.4V77
	c0-0.1,0-0.2,0-0.4l0,0l0,0c0-0.1-0.1-0.2-0.1-0.3c0,0,0,0,0-0.1c-0.1-0.1-0.2-0.2-0.3-0.2l0,0l0,0l0,0c-0.2-0.1-0.5-0.2-0.7-0.1
	l-12.2,2.4c-0.6,0.1-0.9,0.7-0.8,1.2s0.5,0.8,1,0.8h0.2l9-1.8c-8.9,7.8-22.4,8.1-31.6,0.2c-4.8-4.2-7.7-10-8.2-16.4
	c-0.4-6.4,1.6-12.5,5.8-17.4c0.4-0.4,0.3-1-0.1-1.4C24.2,43.2,23.9,43.1,23.7,43.2z M48.4,52.5c-0.6,0-1,0.4-1,1s0.4,1,1,1h45
	c0.6,0,1-0.4,1-1s-0.4-1-1-1H48.4z M48.4,62.5c-0.6,0-1,0.4-1,1s0.4,1,1,1h45c0.6,0,1-0.4,1-1s-0.4-1-1-1H48.4z M80.9,74.5
	c-8.8,0-16,7.2-16,16s7.2,16,16,16c4.5,0,8.5-1.9,11.5-4.9l0,0c0,0,0-0.1,0.1-0.1c2.7-2.9,4.4-6.8,4.4-11
	C96.9,81.7,89.7,74.5,80.9,74.5z M79.9,76.5c0,0.1,0,0.2,0,0.3v13.7c0,0.4,0.2,0.7,0.4,0.8l9.9,9.6c-2.5,2.2-5.8,3.6-9.3,3.6
	c-7.7,0-14-6.3-14-14C66.9,83.1,72.7,77,79.9,76.5z M81.9,76.5c6.9,0.5,12.5,6,13,13h-13V76.8C81.9,76.7,81.9,76.6,81.9,76.5z
	 M27.4,87.6v12.9c0,2.8,2.2,5,5,5h1v-2h-1c-1.7,0-3-1.3-3-3V88.6C28.7,88.3,28.1,87.9,27.4,87.6z M83.4,91.5h11.5
	c-0.2,3-1.4,5.8-3.2,7.9L83.4,91.5z"/>
<path class="st0" d="M81.6,92.6"/>
<path class="st0" d="M78.4,79.1"/>
<path class="st0" d="M75,95.7"/>
<path class="st0" d="M82.8,89.2"/>
</svg>
