<?xml version="1.0" encoding="utf-8"?>
<!-- Generator: Adobe Illustrator 21.0.2, SVG Export Plug-In . SVG Version: 6.00 Build 0)  -->
<svg version="1.1" id="Layer_1" xmlns="http://www.w3.org/2000/svg" xmlns:xlink="http://www.w3.org/1999/xlink" x="0px" y="0px"
	 viewBox="0 0 100 100" style="enable-background:new 0 0 100 100;" xml:space="preserve">
<style type="text/css">
	.st0{fill:none;}
	.st1{fill:#01949D;}
</style>
<rect x="4.7" y="5.8" class="st0" width="90" height="90"/>
<g>
	<g>
		<g>
			<path class="st1" d="M55,68.8H44.3c-0.8,0-1.4-0.6-1.4-1.4v-4.3c0-8.8,4.8-16.9,12.6-21.1c0,0,0.1,0,0.1-0.1c0,0,0.1-0.1,0.2-0.1
				c0.4-0.3,0.9-0.5,1.3-0.9c3-2.3,4.7-5.8,4.7-9.6c0-6.7-5.4-12.1-12.1-12.1s-12.1,5.4-12.1,12.1c0,0.8-0.6,1.4-1.4,1.4H25.4
				c-0.8,0-1.4-0.6-1.4-1.4c0-3.5,0.7-6.8,2-10c1.3-3.1,3.1-5.8,5.5-8.1c2.4-2.4,5.1-4.2,8.1-5.5c3.2-1.3,6.5-2,10-2s6.8,0.7,10,2
				c3.1,1.3,5.8,3.1,8.1,5.5c2.4,2.4,4.2,5.1,5.5,8.1c1.3,3.2,2,6.5,2,10c0,4-0.9,7.9-2.7,11.5c-1.7,3.4-4.2,6.5-7.3,8.8
				c-0.9,0.7-1.8,1.3-2.7,1.8c-0.1,0.1-0.2,0.1-0.3,0.2h-0.1c-0.1,0.1-0.2,0.1-0.3,0.2c-3.4,1.8-5.5,5.3-5.5,9.2v4.3
				C56.4,68.2,55.8,68.8,55,68.8z M45.7,66h8v-2.9c0-4.9,2.7-9.4,7-11.7c0.1,0,0.1-0.1,0.2-0.1H61l0,0c0.1,0,0.2-0.1,0.2-0.1
				c0.8-0.5,1.6-1,2.4-1.6c2.7-2.1,5-4.8,6.5-7.8c1.6-3.2,2.4-6.7,2.4-10.3c0-3.1-0.6-6.1-1.8-8.9c-1.1-2.7-2.8-5.2-4.9-7.3
				c-2.1-2.1-4.5-3.7-7.3-4.9s-5.8-1.8-8.9-1.8c-3.1,0-6.1,0.6-8.9,1.8c-2.7,1.1-5.2,2.8-7.3,4.9s-3.7,4.5-4.9,7.3
				c-1,2.4-1.6,4.9-1.8,7.5h8c0.7-7.6,7.1-13.5,14.8-13.5c8.2,0,14.9,6.7,14.9,14.9c0,4.7-2.1,9-5.8,11.8c-0.5,0.4-1,0.7-1.6,1.1
				c-0.1,0-0.1,0.1-0.2,0.1c0,0,0,0-0.1,0l0,0c0,0,0,0-0.1,0C50,48.2,45.7,55.3,45.7,63.1V66z"/>
		</g>
	</g>
	<g>
		<g>
			<path class="st1" d="M49.7,95.8c-5.5,0-10-4.5-10-10s4.5-10,10-10s10,4.5,10,10C59.6,91.3,55.2,95.8,49.7,95.8z M49.7,78.7
				c-3.9,0-7.2,3.2-7.2,7.2c0,3.9,3.2,7.2,7.2,7.2s7.2-3.2,7.2-7.2C56.8,81.9,53.6,78.7,49.7,78.7z"/>
		</g>
	</g>
</g>
</svg>
